<svg xmlns="http://www.w3.org/2000/svg" viewBox="0 0 1200 900" width="1200" height="900" role="img" aria-label="Prime Curtain elevation"><defs><radialGradient id="glow"><stop offset="0%" stop-color="#c8102e" stop-opacity=".18"/><stop offset="100%" stop-color="#c8102e" stop-opacity="0"/></radialGradient></defs><rect width="1200" height="900" fill="#050505"/><g stroke="#ffffff" stroke-opacity="0.045" stroke-width="1"><path d="M60 0V900"/><path d="M120 0V900"/><path d="M180 0V900"/><path d="M240 0V900"/><path d="M300 0V900"/><path d="M360 0V900"/><path d="M420 0V900"/><path d="M480 0V900"/><path d="M540 0V900"/><path d="M600 0V900"/><path d="M660 0V900"/><path d="M720 0V900"/><path d="M780 0V900"/><path d="M840 0V900"/><path d="M900 0V900"/><path d="M960 0V900"/><path d="M1020 0V900"/><path d="M1080 0V900"/><path d="M1140 0V900"/><path d="M0 60H1200"/><path d="M0 120H1200"/><path d="M0 180H1200"/><path d="M0 240H1200"/><path d="M0 300H1200"/><path d="M0 360H1200"/><path d="M0 420H1200"/><path d="M0 480H1200"/><path d="M0 540H1200"/><path d="M0 600H1200"/><path d="M0 660H1200"/><path d="M0 720H1200"/><path d="M0 780H1200"/><path d="M0 840H1200"/></g><g stroke="#ffffff" stroke-opacity="0.10" stroke-width="1"><path d="M40 40H120M40 40V120"/><path d="M1160 40H1080M1160 40V120"/><path d="M40 860H120M40 860V780"/><path d="M1160 860H1080M1160 860V780"/></g><circle cx="720" cy="410" r="330" fill="url(#glow)"/><text x="60" y="842" fill="#c8102e" font-family="Barlow Condensed,Inter,sans-serif" font-size="26" font-weight="600" letter-spacing="4">PRIME DH120</text><text x="60" y="868" fill="#666666" font-family="Inter,sans-serif" font-size="15" letter-spacing="2.5">PRIME CURTAIN</text><text x="1140" y="868" fill="#666666" text-anchor="end" font-family="Inter,sans-serif" font-size="14" letter-spacing="3">ELEVATION</text><path d="M60 810H1140" stroke="#ffffff" stroke-opacity="0.10"/><path d="M180 250H1020" stroke="#d9d9d9" stroke-width="3"/><path d="M180 220H1020" stroke="#d9d9d9" stroke-opacity=".3" stroke-width="2"/><rect x="420" y="188" width="360" height="62" fill="#050505" stroke="#c8102e" stroke-width="3"/><path d="M440 250H760" stroke="#c8102e" stroke-opacity=".6" stroke-width="2"/><path d="M450 250L450 550L750 550L750 250Z" fill="#c8102e" fill-opacity=".10" stroke="#c8102e" stroke-width="2.5"/><path d="M493 250V550" stroke="#c8102e" stroke-opacity=".28" stroke-width="1.4"/><path d="M536 250V550" stroke="#c8102e" stroke-opacity=".28" stroke-width="1.4"/><path d="M579 250V550" stroke="#c8102e" stroke-opacity=".28" stroke-width="1.4"/><path d="M622 250V550" stroke="#c8102e" stroke-opacity=".28" stroke-width="1.4"/><path d="M665 250V550" stroke="#c8102e" stroke-opacity=".28" stroke-width="1.4"/><path d="M708 250V550" stroke="#c8102e" stroke-opacity=".28" stroke-width="1.4"/><rect x="440" y="550" width="320" height="16" rx="3" fill="#050505" stroke="#d9d9d9" stroke-width="3"/><path d="M180 720H1020" stroke="#d9d9d9" stroke-opacity=".45" stroke-width="2"/></svg>